<svg width="170" height="34" viewBox="0 0 170 34" fill="none" xmlns="http://www.w3.org/2000/svg">
  <mask id="mask0_8209_999" style="mask-type:luminance" maskUnits="userSpaceOnUse" x="0" y="0" width="34" height="34">
    <path d="M25.5 0H8.5C3.80558 0 0 3.80558 0 8.5V25.5C0 30.1944 3.80558 34 8.5 34H25.5C30.1944 34 34 30.1944 34 25.5V8.5C34 3.80558 30.1944 0 25.5 0Z" fill="white"/>
  </mask>
  <g mask="url(#mask0_8209_999)">
    <path d="M25.5 0H8.5C3.80558 0 0 3.80558 0 8.5V25.5C0 30.1944 3.80558 34 8.5 34H25.5C30.1944 34 34 30.1944 34 25.5V8.5C34 3.80558 30.1944 0 25.5 0Z" fill="#F54900"/>
    <path d="M0 0H34V34H0V0Z" fill="url(#paint0_linear_8209_999)"/>
    <path d="M25.5026 0.708008H8.5026C4.19939 0.708008 0.710938 4.19646 0.710938 8.49967V25.4997C0.710938 29.8029 4.19939 33.2913 8.5026 33.2913H25.5026C29.8058 33.2913 33.2943 29.8029 33.2943 25.4997V8.49967C33.2943 4.19646 29.8058 0.708008 25.5026 0.708008Z" stroke="white" stroke-opacity="0.1"/>
    <path d="M20.3223 14.5488C20.3223 14.0384 20.222 13.5462 20.0215 13.0723C19.8301 12.5892 19.5658 12.1654 19.2285 11.8008C18.8913 11.4271 18.4948 11.1309 18.0391 10.9121C17.5924 10.6842 17.1139 10.5703 16.6035 10.5703C16.0931 10.5703 15.61 10.6569 15.1543 10.8301C14.7077 11.0033 14.3158 11.2585 13.9785 11.5957C13.6504 11.9329 13.3906 12.3522 13.1992 12.8535C13.0078 13.3457 12.9121 13.9108 12.9121 14.5488C12.9121 15.1595 13.0078 15.7109 13.1992 16.2031C13.3906 16.6862 13.6504 17.1009 13.9785 17.4473C14.3158 17.7936 14.7077 18.0625 15.1543 18.2539C15.61 18.4362 16.0931 18.5273 16.6035 18.5273C17.1139 18.5273 17.5924 18.418 18.0391 18.1992C18.4948 17.9714 18.8913 17.6751 19.2285 17.3105C19.5658 16.9368 19.8301 16.513 20.0215 16.0391C20.222 15.556 20.3223 15.0592 20.3223 14.5488ZM24.082 20.1543C24.082 21.1842 23.8861 22.1504 23.4941 23.0527C23.1022 23.9551 22.5645 24.7435 21.8809 25.418C21.2064 26.0924 20.4134 26.6257 19.502 27.0176C18.5996 27.4095 17.6335 27.6055 16.6035 27.6055L14.7305 27.5781V23.8457L16.5762 23.873C17.1595 23.873 17.6562 23.7956 18.0664 23.6406C18.4766 23.4948 18.8229 23.2897 19.1055 23.0254C19.388 22.7702 19.6113 22.474 19.7754 22.1367C19.9486 21.7995 20.0853 21.444 20.1855 21.0703C20.0397 21.3073 19.8301 21.5033 19.5566 21.6582C19.2832 21.804 18.9779 21.9225 18.6406 22.0137C18.3125 22.1139 17.9661 22.1823 17.6016 22.2188C17.2461 22.2552 16.9134 22.2734 16.6035 22.2734C15.5736 22.2734 14.6029 22.0957 13.6914 21.7402C12.7891 21.3848 11.9961 20.8789 11.3125 20.2227C10.638 19.5573 10.1048 18.7461 9.71289 17.7891C9.32096 16.832 9.125 15.752 9.125 14.5488C9.125 13.446 9.32096 12.4206 9.71289 11.4727C10.1048 10.5247 10.638 9.70443 11.3125 9.01172C11.9961 8.31901 12.7891 7.77669 13.6914 7.38477C14.6029 6.99284 15.5736 6.79688 16.6035 6.79688C17.0775 6.79688 17.5469 6.85612 18.0117 6.97461C18.4766 7.0931 18.9277 7.25716 19.3652 7.4668C19.8027 7.67643 20.2174 7.92253 20.6094 8.20508C21.0104 8.48763 21.3841 8.79297 21.7305 9.12109L23.1797 7.38477H24.082V20.1543Z" fill="#FFEDD4"/>
  </g>

  <text x="42" y="24" font-family="Arial, sans-serif" font-size="22" font-weight="700" fill="white">Glimpse</text>

  <defs>
    <linearGradient id="paint0_linear_8209_999" x1="17" y1="0" x2="18.4167" y2="34" gradientUnits="userSpaceOnUse">
      <stop stop-color="white" stop-opacity="0"/>
      <stop offset="1" stop-color="white" stop-opacity="0.12"/>
    </linearGradient>
  </defs>
</svg>